<?xml version="1.0" standalone="no"?><!DOCTYPE svg PUBLIC "-//W3C//DTD SVG 1.1//EN" "http://www.w3.org/Graphics/SVG/1.1/DTD/svg11.dtd"><svg class="icon" width="200px" height="200.00px" viewBox="0 0 1024 1024" version="1.1" xmlns="http://www.w3.org/2000/svg"><path d="M512 864c238.6 0 432-157.6 432-352S750.6 160 512 160 80 317.6 80 512c0 90.4 41.8 172.8 110.5 235.2C269.6 818.9 384.4 864 512 864z" fill="#A6CA7A" /><path d="M189 745.7c72.2 44.1 161.8 70.3 259 70.3 238.6 0 432-157.6 432-352 0-89.7-41.2-171.6-109-233.7C876 294.5 944 396.8 944 512c0 194.4-193.4 352-432 352-127.6 0-242.4-45.1-321.5-116.8l-1.5-1.5z" fill="#729844" /><path d="M321.5 457.6l-2.9-15.7c64.7-12 187.1 16.7 226.8 55.6l-11.2 11.4c-35.8-34.9-152.9-62.4-212.7-51.3z" fill="#EAF2E0" /><path d="M573.3 860.8c43.2 0 23.6-2 63-11.6-6.5-115.3-19.8-202.6-40.1-261.9-20.3-59.3-59-127.9-116.2-205.7l-14.3 9.9C530.9 493.4 566.8 583 573.3 660.4c6.5 77.4 6.5 144.2 0 200.4z" fill="#EAF2E0" /><path d="M573.3 860.5c2.2-19 3.6-39.2 4.3-60.6 18.5-4.7 36.5-10.5 53.9-17.1 1.9 21 3.5 43.2 4.8 66.5-20.4 4.9-41.4 8.7-63 11.2z" fill="#9BB977" /><path d="M523.2 444.6h-16c0-34.6 30.8-73.2 67.8-87.6l5.8 14.9c-31.3 12.2-57.6 45.3-57.6 72.7zM269.1 559.5l-4.5-15.4c99.2-29 277.1 29.6 324.5 99.6l-13.2 9c-43.4-64.1-214.1-120.3-306.8-93.2zM248.1 670.4l-3.7-15.6c108.1-25.8 303.3 51.9 353.9 126.5l-13.2 9c-47-69.1-235.4-144.1-337-119.9zM583.6 566l-15.3-4.8c23.4-75 98.3-148.4 172.7-159.2l2.3 15.8c-67.8 9.9-138 78.7-159.7 148.2z" fill="#EAF2E0" /><path d="M512 880c-128.2 0-247.8-44.4-332.2-121C105.8 691.9 64 604.7 64 512c0-204 201.2-368 448-368s448 164 448 368-201.2 368-448 368z m0-32c230.4 0 416-151.2 416-336S742.4 176 512 176 96 327.2 96 512c0 83.3 37.8 162.1 105.3 223.3C279.7 806.4 391.6 848 512 848z" fill="#333333" /><path d="M615.8 734.5l-15.6-3.5c23-103.6 133.7-237.7 244.2-244l0.9 16c-101.9 5.8-207.8 134.1-229.5 231.5z" fill="#EAF2E0" /><path d="M397.1 416.9C624.1 339 750.6 160 512 160S80 317.6 80 512c0 90.4 41.8 172.8 110.5 235.2 79.1 71.7 0-259.4 206.6-330.3z" fill="#8CB35D" /><path d="M199.4 754c-2.7-1.6-5.7-3.9-8.9-6.8C121.8 684.8 80 602.4 80 512c0-194.4 193.4-352 432-352 87.2 0 125.6 23.9 128.2 58-19.9-6.4-46.4-10-80.2-10-238.6 0-432 157.6-432 352 0 71.7 26.3 138.3 71.4 194z" fill="#BAD19D" /><path d="M402.3 432c-65.7 22.6-104.8 74.2-127.9 153-5.6 18.9-10.1 38.9-14.3 62.2-2.4 13.1-9 53.6-9.4 55.8-5.3 30.5-9.6 46.3-17.5 57.2-13.5 18.6-33.7 16.7-53.4-1.3C105.8 691.9 64 604.7 64 512c0-204 201.2-368 448-368 121.2 0 171.6 50 131.1 123-33.7 60.9-128.2 126.4-240.8 165zM219.2 697.6c0.3-1.9 7-42.7 9.5-56.1 4.4-24.3 9.2-45.3 15.1-65.5 25.7-87.8 71.1-147.8 148.2-174.3 105.8-36.3 193.9-97.4 223.2-150.3 26-46.9-2.9-75.5-103.2-75.5C281.6 176 96 327.2 96 512c0 83.3 37.8 162.1 105.3 223.3 2.9 2.6 5.2 4.3 6.7 5.2 3.6-5.9 7.1-19.2 11.2-42.9z" fill="#333333" /><path d="M610 362.1c238.6 0 334 344.3 334 149.9S750.6 160 512 160c-67.8 0-131.9 12.7-188.9 35.4-143.9 57.1 48.3 166.7 286.9 166.7z" fill="#8CB35D" /><path d="M299.3 284c-37.8-30.7-37.3-64.4 23.8-88.7 57-22.6 121.1-35.3 188.9-35.3 222.7 0 406 137.3 429.5 313.7C887.7 329.2 722.9 224 528 224c-67.8 0-131.9 12.7-188.9 35.4-18.8 7.4-31.8 15.7-39.8 24.6z" fill="#BAD19D" /><path d="M704.8 196.9C846.6 254.6 944 374 944 512c0 90.4-20.6 64.3-66.7 10.5 1.8-10 2.7-24 2.7-42.5 0-116-68.9-219-175.2-283.1z" fill="#729844" /><path d="M610 378.1c-115.3 0-228-25.5-294.9-64.1-74.9-43.2-79.7-101.1 2.1-133.5C377.4 156.6 443.6 144 512 144c246.8 0 448 164 448 368 0 32.4-2.4 51.5-9.1 62.7-10.9 18.2-28.5 16-45.1 2.2-10.5-8.7-70.2-78.5-90.5-98.8-64.4-64.5-129.6-100-205.3-100zM928 512c0-184.8-185.6-336-416-336-64.3 0-126.6 11.8-183 34.2-53.8 21.4-51.8 44.9 2.1 76C392.7 321.7 500 346 610 346c85.7 0 158.1 39.5 227.9 109.4 21.4 21.4 77.3 86.7 87.6 96.2 1.5-7.6 2.5-20.8 2.5-39.6z" fill="#333333" /></svg>