<?xml version="1.0" standalone="no"?><!DOCTYPE svg PUBLIC "-//W3C//DTD SVG 1.1//EN" "http://www.w3.org/Graphics/SVG/1.1/DTD/svg11.dtd"><svg class="icon" width="200px" height="200.00px" viewBox="0 0 1024 1024" version="1.1" xmlns="http://www.w3.org/2000/svg"><path d="M682.658 123.196l36.31 25.552-285.39 405.547-36.31-25.552z" fill="#46C373" /><path d="M682.6 123.2l36.3 25.6-285.4 405.5-36.3-25.6 285.4-405.5m-4.3-25.1l-10.4 14.7-285.4 405.6-10.4 14.7 14.7 10.4 36.3 25.6 14.7 10.4 10.4-14.7 285.4-405.5 10.4-14.7-14.7-10.6-36.3-25.5-14.7-10.4z" fill="#1A1A1A" /><path d="M440.004 540.766l-37.36-17.13L591.329 112.13l37.36 17.13z" fill="#A5DC69" /><path d="M591.4 112.2l37.3 17.1L440 540.8l-37.3-17.1 188.7-411.5m-8.9-23.9l-7.5 16.4-188.7 411.5-7.5 16.4 16.4 7.5 37.3 17.1 16.4 7.5 7.5-16.4 188.7-411.5 7.5-16.4-16.4-7.5-37.3-17.1-16.4-7.5z" fill="#1A1A1A" /><path d="M215.5 823.4c-17.4-12.3-21.4-36.4-8.8-53.6L406 505.2l45.8 32.2-182.9 276.3c-12 17.6-36 21.9-53.4 9.7z" fill="#D6EDE5" /><path d="M406 505.2l45.8 32.2-182.9 276.3c-7.4 10.8-19.3 16.6-31.5 16.6-7.6 0-15.2-2.3-21.9-6.9-17.4-12.3-21.4-36.4-8.8-53.6L406 505.2m-3.9-24.7l-10.5 13.9-199.3 264.5-0.1 0.1-0.1 0.1c-9 12.2-12.6 27.2-10.1 42.2 2.5 15 10.6 28 23.1 36.8 9.5 6.7 20.7 10.2 32.2 10.2 18.6 0 35.9-9.2 46.4-24.5l0.1-0.1 0.1-0.1 182.9-276.2 9.7-14.6-14.3-10.1-45.8-32.2-14.3-10z" fill="#1A1A1A" /><path d="M196.5 817.3l-13 9.4" fill="#FFFFFF" /><path d="M183.5 835.7c-2.8 0-5.6-1.3-7.3-3.8-2.9-4-2-9.7 2.1-12.6l13-9.3c4-2.9 9.7-2 12.6 2.1 2.9 4 2 9.7-2.1 12.6l-13 9.3c-1.6 1.1-3.4 1.7-5.3 1.7z" fill="#1A1A1A" /><path d="M233 844l-4.1 11.6" fill="#FFFFFF" /><path d="M228.9 864.6c-1 0-2-0.2-3-0.5-4.7-1.7-7.1-6.8-5.4-11.5l4.2-11.6c1.7-4.7 6.8-7.1 11.5-5.4 4.7 1.7 7.1 6.8 5.4 11.5l-4.2 11.6c-1.4 3.6-4.9 5.9-8.5 5.9z" fill="#1A1A1A" /><path d="M207.8 832.2l-6.3 12.2" fill="#FFFFFF" /><path d="M201.5 853.5c-1.4 0-2.8-0.3-4.1-1-4.4-2.3-6.2-7.7-3.9-12.1l6.3-12.2c2.3-4.4 7.7-6.2 12.1-3.9s6.2 7.7 3.9 12.1l-6.3 12.2c-1.6 3.1-4.8 4.9-8 4.9z" fill="#1A1A1A" /><path d="M334.6 674.2l-46.8 61" fill="#FFFFFF" /><path d="M287.8 744.2c-1.9 0-3.8-0.6-5.5-1.9-3.9-3-4.7-8.7-1.7-12.6l46.8-61.1c3-3.9 8.7-4.7 12.6-1.7 3.9 3 4.7 8.7 1.7 12.6l-46.8 61.1c-1.8 2.4-4.4 3.6-7.1 3.6z" fill="#1A1A1A" /><path d="M262.7 768l-3.6 4.7" fill="#FFFFFF" /><path d="M259.1 781.7c-1.9 0-3.8-0.6-5.5-1.9-3.9-3-4.7-8.7-1.7-12.6l3.6-4.7c3-3.9 8.7-4.7 12.6-1.7 3.9 3 4.7 8.7 1.7 12.6l-3.6 4.7c-1.8 2.3-4.4 3.6-7.1 3.6z" fill="#1A1A1A" /><path d="M868.74 372.136l23.995 33.37-367.547 264.286-23.994-33.37z" fill="#A5DC69" /><path d="M868.7 372.1l24 33.3-367.6 264.3-24-33.3 367.6-264.3m4.1-25.1l-14.6 10.5-367.5 264.3-14.7 10.5 10.5 14.6 24 33.3 10.5 14.6 14.6-10.5L903.1 420l14.6-10.5-10.4-14.5-24-33.3-10.5-14.7z" fill="#1A1A1A" /><path d="M525.1 669.7l-13.6-19 371.8-258.3 9.4 13.1z" fill="#7FAA43" /><path d="M842.923 282.278l29.572 28.544-344.403 356.8-29.571-28.544z" fill="#46C373" /><path d="M843 282.2l29.5 28.5-344.4 356.9-29.5-28.5L843 282.2m-0.5-25.4l-12.5 13-344.4 356.8-12.5 13 13 12.5 29.5 28.5 13 12.5 12.5-13 344.4-356.8 12.5-13-13-12.5-29.5-28.5-13-12.5z" fill="#1A1A1A" /><path d="M528.1 667.6l-16.6-16.9 350.1-350.4 10.9 10.5z" fill="#37A057" /><path d="M549.4 657.3l-52.2-20 179.1-335.5 48.6 26.8z" fill="#A5DC69" /><path d="M553.6 668.5L484.4 642l188.2-352.5L737 325 553.6 668.5z m-43.7-36l35.3 13.5 167.6-313.8-32.8-18.1-170.1 318.4z" fill="#1A1A1A" /><path d="M278 832.6l231-214.2 40.3 38.9-206 238.4c-17.1 19.8-47.4 21.1-66.1 2.8-18.6-18.2-18.3-48.3 0.8-65.9z" fill="#D6EDE5" /><path d="M509.1 618.3l40.3 38.9-206 238.4c-9 10.4-21.7 15.7-34.4 15.7-11.4 0-22.9-4.3-31.7-12.9-18.6-18.2-18.2-48.2 0.8-65.9l231-214.2m0.2-24.7l-12.5 11.6-231 214.2c-12.9 11.9-20.1 28.2-20.3 45.7s6.6 34 19.1 46.2c11.9 11.6 27.7 18 44.3 18 18.5 0 36-8 48-22L563 669l11.1-12.9-12.3-11.8-40.3-38.9-12.2-11.8z" fill="#1A1A1A" /><path d="M536 644.3l13.4 12.9-206 238.4c-17.1 19.8-47.4 21.1-66.1 2.8C347.5 835.5 536 644.3 536 644.3z" fill="#C1D3CD" /><path d="M282.6 921.5l-6.5 12.9" fill="#FFFFFF" /><path d="M276.1 943.4c-1.4 0-2.7-0.3-4-0.9-4.4-2.2-6.3-7.6-4-12.1l6.5-12.9c2.2-4.4 7.6-6.3 12.1-4 4.4 2.2 6.3 7.6 4 12.1l-6.5 12.9c-1.6 3.1-4.8 4.9-8.1 4.9z" fill="#1A1A1A" /><path d="M252.1 894.6l-10.7 6.2" fill="#FFFFFF" /><path d="M241.4 909.8c-3.1 0-6.1-1.6-7.8-4.4-2.5-4.3-1.1-9.8 3.2-12.3l10.6-6.3c4.3-2.5 9.8-1.1 12.3 3.2 2.5 4.3 1.1 9.8-3.2 12.3l-10.6 6.3c-1.3 0.8-2.9 1.2-4.5 1.2z" fill="#1A1A1A" /><path d="M264.7 911.7l-10.9 8.4" fill="#FFFFFF" /><path d="M253.9 929.1c-2.7 0-5.3-1.2-7.1-3.5-3.1-3.9-2.4-9.6 1.5-12.6l10.8-8.5c3.9-3.1 9.6-2.4 12.6 1.5 3.1 3.9 2.4 9.6-1.5 12.6l-10.8 8.5c-1.7 1.4-3.6 2-5.5 2z" fill="#1A1A1A" /><path d="M394 786.8l-53.2 55.6" fill="#FFFFFF" /><path d="M340.8 851.4c-2.2 0-4.5-0.8-6.2-2.5-3.6-3.4-3.7-9.1-0.3-12.7l53.2-55.6c3.4-3.6 9.1-3.7 12.7-0.3 3.6 3.4 3.7 9.1 0.3 12.7l-53.2 55.6c-1.8 1.9-4.1 2.8-6.5 2.8z" fill="#1A1A1A" /><path d="M312.3 872.2l-4.1 4.3" fill="#FFFFFF" /><path d="M308.2 885.5c-2.2 0-4.5-0.8-6.2-2.5-3.6-3.4-3.7-9.1-0.3-12.7l4.1-4.3c3.4-3.6 9.1-3.7 12.7-0.3 3.6 3.4 3.7 9.1 0.3 12.7l-4.1 4.3c-1.8 1.9-4.1 2.8-6.5 2.8z" fill="#1A1A1A" /></svg>