<?xml version="1.0" standalone="no"?><!DOCTYPE svg PUBLIC "-//W3C//DTD SVG 1.1//EN" "http://www.w3.org/Graphics/SVG/1.1/DTD/svg11.dtd"><svg class="icon" width="200px" height="200.00px" viewBox="0 0 1024 1024" version="1.1" xmlns="http://www.w3.org/2000/svg"><path d="M433.2 317c-14.9 131.6-1.8 534.9 17.6 620.4 6.1 27 33.4 34.7 67.8 18.6 40-18.8 70.6-62 74.7-115.2 9.4-121.5 0.9-415.8-14.6-550.8-12.2-106.6-57.3-185.1-85.9-185.1-6.7 0-18.1 15.8-29.1 49.2-12.1 37.4-22.6 92.8-30.5 162.9z m-31.8-3.6C419 157.7 446.8 72.7 492.9 72.7c50.7 0 103.8 92.5 117.6 213.5 15.7 136.9 24.3 433.3 14.7 557-5 64.9-42.7 118.1-93 141.7-50.8 23.9-101.2 9.7-112.6-40.4-20.3-89.3-33.5-496.1-18.2-631.1z" fill="#333333" /><path d="M433.2 317c-14.9 131.6-1.8 534.9 17.6 620.4 6.1 27 33.4 34.7 67.8 18.6 40-18.8 70.6-62 74.7-115.2 9.4-121.5 0.9-415.8-14.6-550.8-12.2-106.6-57.3-185.1-85.9-185.1-6.7 0-18.1 15.8-29.1 49.2-12.1 37.4-22.6 92.8-30.5 162.9z" fill="#6C9A35" /><path d="M503.1 107.7c-6.6 6-15.1 21.1-23.3 46.3-12.3 37.5-22.7 93-30.7 163.1-14.9 131.6-1.8 534.9 17.6 620.4 3.4 14.9 13.3 24 27.2 26.3-22.3 3.2-38.6-6.2-43.2-26.3-19.5-85.5-32.5-488.8-17.6-620.4C441 247 451.5 191.6 463.8 154c10.9-33.4 22.4-49.2 29.1-49.2 3.2-0.1 6.7 0.9 10.2 2.9z" fill="#A6C285" /><path d="M499.1 105.8c28.5 10 68.3 84.8 79.7 184 15.5 135 24 429.3 14.6 550.8-4.1 53.3-34.7 96.4-74.7 115.2-34.4 16.1-61.7 8.4-67.8-18.6-0.4-1.6-0.7-3.4-1.1-5.2 10.6 0.9 23.2-1.8 36.9-8.2 40-18.8 70.6-62 74.7-115.2 9.4-121.5 0.9-415.8-14.6-550.8-7.5-64.8-27.1-119.2-47.7-152z" fill="#53801E" /><path d="M609.3 841.9c-10 129.3-155.6 180.4-174.1 99-18.5-81.3 184.1-228.3 174.1-99z" fill="#E8F4C7" /><path d="M593.3 840.7c1.8-23-3.1-31.8-12.5-33.5-11.7-2.1-31.4 4.5-53 18.7-47.7 31.1-83.6 82.5-77 111.5 6.1 27 33.4 34.7 67.8 18.6 40.1-18.9 70.6-62 74.7-115.3z m31.9 2.5c-5 64.9-42.7 118.1-93 141.7-50.8 23.9-101.2 9.7-112.6-40.4-10.4-45.7 33-107.8 90.7-145.4 27.9-18.2 54.8-27.3 76.2-23.4 28 5 41.7 29.7 38.7 67.5z" fill="#333333" /><path d="M553.6 877.7c-3.6 46.9-56.4 65.4-63.1 35.9s66.8-82.7 63.1-35.9z" fill="#D3E4A6" /><path d="M508.5 83.2c0 8.8-7.2 16-16 16s-16-7.2-16-16v-40c0-8.8 7.2-16 16-16s16 7.2 16 16v40z" fill="#333333" /><path d="M465.3 251.2m-16 0a16 16 0 1 0 32 0 16 16 0 1 0-32 0Z" fill="#2F5206" /><path d="M545.3 331.2m-16 0a16 16 0 1 0 32 0 16 16 0 1 0-32 0Z" fill="#2F5206" /><path d="M529.3 411.2m-16 0a16 16 0 1 0 32 0 16 16 0 1 0-32 0Z" fill="#2F5206" /><path d="M465.3 475.2m-16 0a16 16 0 1 0 32 0 16 16 0 1 0-32 0Z" fill="#2F5206" /><path d="M561.3 507.2m-16 0a16 16 0 1 0 32 0 16 16 0 1 0-32 0Z" fill="#2F5206" /><path d="M465.3 587.2m-16 0a16 16 0 1 0 32 0 16 16 0 1 0-32 0Z" fill="#2F5206" /><path d="M561.3 667.2m-16 0a16 16 0 1 0 32 0 16 16 0 1 0-32 0Z" fill="#2F5206" /></svg>