<?xml version="1.0" standalone="no"?><!DOCTYPE svg PUBLIC "-//W3C//DTD SVG 1.1//EN" "http://www.w3.org/Graphics/SVG/1.1/DTD/svg11.dtd"><svg class="icon" width="200px" height="200.00px" viewBox="0 0 1024 1024" version="1.1" xmlns="http://www.w3.org/2000/svg"><path d="M512 976c-68.7 0-117.1-86.7-152-231.8-24.2-100.6-40-230.3-40-296.2 0-106 86-192 192-192s192 86 192 192c0 65.9-15.8 195.6-40 296.2C629.1 889.3 580.7 976 512 976z m0-32c46.6 0 89.6-77 120.9-207.3C656.5 638.5 672 511.3 672 448c0-88.4-71.6-160-160-160s-160 71.6-160 160c0 63.3 15.5 190.5 39.1 288.7C422.4 867 465.4 944 512 944z" fill="#333333" /><path d="M512 944c46.6 0 89.6-77 120.9-207.3C656.5 638.5 672 511.3 672 448c0-88.4-71.6-160-160-160s-160 71.6-160 160c0 63.3 15.5 190.5 39.1 288.7C422.4 867 465.4 944 512 944z" fill="#F1914E" /><path d="M479.6 931.4c-33.9-26.8-64.6-95.2-88.5-194.7C367.5 638.5 352 511.3 352 448c0-88.4 71.6-160 160-160 48.3 0 91.5 21.4 120.9 55.1C604.8 318.8 568.1 304 528 304c-88.4 0-160 71.6-160 160 0 63.3 15.5 190.5 39.1 288.7 20.1 83.6 45 145.2 72.5 178.7z" fill="#F6BD94" /><path d="M474.3 926.8c42.6-10.4 81.6-85.4 110.6-206C608.5 622.5 624 495.3 624 432c0-61.7-34.9-115.2-86-141.9 76 12.4 134 78.4 134 157.9 0 63.3-15.5 190.5-39.1 288.7C601.6 867 558.6 944 512 944c-12.9 0-25.6-5.9-37.7-17.2z" fill="#D97936" /><path d="M360 608c-8.8 0-16-7.2-16-16s7.2-16 16-16h96c8.8 0 16 7.2 16 16s-7.2 16-16 16h-96zM544 736c-8.8 0-16-7.2-16-16s7.2-16 16-16h96c8.8 0 16 7.2 16 16s-7.2 16-16 16h-96zM344 496c-8.8 0-16-7.2-16-16s7.2-16 16-16h192c8.8 0 16 7.2 16 16s-7.2 16-16 16H344z" fill="#333333" /><path d="M520.6 300.6c10.4-10.4-1.9-47.2-33.9-79.2s-68.8-44.3-79.2-33.9 1.9 47.2 33.9 79.2 68.8 44.2 79.2 33.9z" fill="#98B957" /><path d="M543.2 323.2c-27.1 27.1-81.5 9-124.5-33.9s-61.1-97.3-33.9-124.5 81.5-9 124.5 33.9 61 97.4 33.9 124.5z m-22.6-22.6c10.4-10.4-1.9-47.2-33.9-79.2s-68.8-44.3-79.2-33.9 1.9 47.2 33.9 79.2 68.8 44.2 79.2 33.9z" fill="#333333" /><path d="M503.4 300.6c-10.4-10.4 1.9-47.2 33.9-79.2s68.8-44.3 79.2-33.9c10.4 10.4-1.9 47.2-33.9 79.2s-68.8 44.2-79.2 33.9z" fill="#7FA337" /><path d="M480.8 323.2c27.1 27.1 81.5 9 124.5-33.9 42.9-42.9 61.1-97.3 33.9-124.5s-81.5-9-124.5 33.9-61 97.4-33.9 124.5z m22.6-22.6c-10.4-10.4 1.9-47.2 33.9-79.2s68.8-44.3 79.2-33.9c10.4 10.4-1.9 47.2-33.9 79.2s-68.8 44.2-79.2 33.9z" fill="#333333" /><path d="M512 336c-47.2 0-80-65.6-80-144s32.8-144 80-144 80 65.6 80 144-32.8 144-80 144z m0-32c23.5 0 48-49 48-112S535.5 80 512 80s-48 49-48 112 24.5 112 48 112z" fill="#333333" /><path d="M512 304c23.5 0 48-49 48-112S535.5 80 512 80s-48 49-48 112 24.5 112 48 112z" fill="#98B957" /><path d="M486.7 285.5c3.1 1.6 6.2 2.5 9.3 2.5 23.5 0 48-49 48-112 0-39.6-9.7-73.7-22.7-93.5C541.5 93.2 560 137.3 560 192c0 63-24.5 112-48 112-8.7 0-17.6-6.8-25.3-18.5z" fill="#7FA337" /></svg>