<?xml version="1.0" standalone="no"?><!DOCTYPE svg PUBLIC "-//W3C//DTD SVG 1.1//EN" "http://www.w3.org/Graphics/SVG/1.1/DTD/svg11.dtd"><svg class="icon" width="200px" height="200.00px" viewBox="0 0 1024 1024" version="1.1" xmlns="http://www.w3.org/2000/svg"><path d="M500.8 462.4c43.2-20.8 96-32 153.6-32 140.8 0 254.4 72 254.4 160s-113.6 160-254.4 160c-81.6 0-155.2-24-201.6-64" fill="#FFD2B0" /><path d="M675.2 768c-100.8 0-193.6-28.8-254.4-80-6.4-6.4-8-16-1.6-22.4 6.4-6.4 16-8 22.4-1.6C496 708.8 582.4 736 675.2 736c161.6 0 291.2-80 291.2-179.2s-131.2-179.2-291.2-179.2c-65.6 0-126.4 12.8-179.2 38.4-8 3.2-17.6 0-20.8-8-3.2-8 0-17.6 8-20.8 56-27.2 123.2-41.6 192-41.6 179.2 0 323.2 94.4 323.2 211.2S852.8 768 675.2 768z" fill="#4C4C4C" /><path d="M265.6 784c-132.8 0-240-136-240-302.4s107.2-302.4 240-302.4 240 136 240 302.4S396.8 784 265.6 784z m0-572.8c-115.2 0-208 121.6-208 270.4S150.4 752 265.6 752s208-121.6 208-270.4-94.4-270.4-208-270.4z" fill="#4C4C4C" /></svg>