<?xml version="1.0" standalone="no"?><!DOCTYPE svg PUBLIC "-//W3C//DTD SVG 1.1//EN" "http://www.w3.org/Graphics/SVG/1.1/DTD/svg11.dtd"><svg class="icon" width="200px" height="200.00px" viewBox="0 0 1024 1024" version="1.1" xmlns="http://www.w3.org/2000/svg"><path d="M400.2 248.7c10.2-10.4 17.7-17.5 25.2-23.9 26.5-22.5 51.9-32.8 86.6-32.8v32c-26.7 0-44.9 7.4-65.9 25.2-6.6 5.6-13.5 12.2-23.1 22-0.8 0.8-20.9 21.5-27.7 28.2l-13 13-11.1-14.8c-49.6-66.1-180.5-53.8-212 43.3C116.1 474 188.8 795 298.1 883.6c21.1 17.1 45.1 21.9 75.3 17.2 16.5-2.6 32.2-7.2 58.9-16.6 47.2-16.6 59.5-20.1 79.8-20.1v32c-15 0-26.4 3.3-69.1 18.3-28.4 10-45.6 15.1-64.6 18-38.5 6-71.5-0.6-100.4-23.9C157.7 811 81.9 476 128.8 331.1c37.6-116.1 185.1-136.4 255.9-66.6 7.3-7.5 14.9-15.3 15.5-15.8z" fill="#333333" /><path d="M446.1 249.2c-6.6 5.6-13.5 12.2-23.1 22-0.8 0.8-20.9 21.5-27.7 28.2l-13 13-11.1-14.8c-49.6-66.1-180.5-53.8-212 43.3C116.1 474 188.8 795 298.1 883.6c21.1 17.1 45.1 21.9 75.3 17.2 16.5-2.6 32.2-7.2 58.9-16.6 34.1-12 49.9-17.2 63.8-19.1V225c-18.7 2.6-33.5 10.1-50 24.2z" fill="#FF6253" /><path d="M227.9 787.6C161 654 126.3 442.6 159.2 340.9c24.2-74.9 107.6-99.3 167.2-76.4-56.1 6.1-110.9 40.2-131.4 103.5-30.9 95.5-13.5 269.3 32.9 419.6z" fill="#FFA097" /><path d="M623 248.7c-10.2-10.4-17.7-17.5-25.2-23.9-26.5-22.5-51.9-32.8-86.6-32.8h-16v704h16c15 0 26.4 3.3 69.1 18.3 28.4 10 45.6 15.1 64.6 18 38.5 6 71.5-0.6 100.4-23.9C865.4 811 941.3 476 894.4 331.1 856.8 215 709.2 194.7 638.5 264.5c-7.4-7.5-15-15.3-15.5-15.8z" fill="#EA4333" /><path d="M623 248.7c-10.2-10.4-17.7-17.5-25.2-23.9-26.5-22.5-51.9-32.8-86.6-32.8v32c26.7 0 44.9 7.4 65.9 25.2 6.6 5.6 13.5 12.2 23.1 22 0.8 0.8 20.9 21.5 27.7 28.2l13 13 11.1-14.8c49.6-66.1 180.5-53.8 212 43.3C907 474 834.3 795 725.1 883.6c-21.1 17.1-45.1 21.9-75.3 17.2-16.5-2.6-32.2-7.2-58.9-16.6-47.2-16.6-59.5-20.1-79.8-20.1v32c15 0 26.4 3.3 69.1 18.3 28.4 10 45.6 15.1 64.6 18 38.5 6 71.5-0.6 100.4-23.9C865.4 811 941.3 476 894.4 331.1 856.8 215 709.2 194.7 638.5 264.5c-7.4-7.5-15-15.3-15.5-15.8z" fill="#333333" /><path d="M416 328c48-8 71.2-0.9 71.2-59.5 0-29.8-1.2-78.3 24.8-108.5 25.2-29.2 63-51.3 104-59s66.4 27.6 48 59-57.5 5.4-87.9 24.8c-35.2 22.5-24.9 85.1-24.9 106.2 0 36.6 88.8 37 64.8 37-7.2 0-41.9 21.3-104 64l-96-64z" fill="#9AC97D" /><path d="M511.9 372.7c24.6-16.8 44.1-29.8 59.4-39.3-22.1-8.5-36.1-21.7-36.1-42.4 0-2.6 0-1.8-0.7-14.5-0.9-16.8-1.1-28.2 0.1-40.7 2.7-29.1 12.4-51.5 32.9-64.5 10.8-6.9 22.4-9.8 36.5-10.5 4.4-0.2 7.9-0.2 15.2 0 21.1 0.4 26.3-1 31-8.9 11.7-19.9-4.2-40.3-31.2-35.2-36.8 6.9-71.7 26.8-94.8 53.7-9.5 11-15.4 26.3-18.3 45.7-2.1 13.8-2.6 25.6-2.5 48.2v4c0 44.2-11.6 61.3-44.2 69l52.7 35.4zM616 343.5c0.2 0.1 0.4 0 0.6 0H616z m3-31.5h0.1-0.1z m-6.3 34.3c-4.8 2.4-11.4 6.2-19.7 11.4-17.1 10.5-41.1 26.4-71.9 47.6l-8.9 6.1L373.5 319l39.9-6.7c4.2-0.7 8.4-1.3 13.3-2 2.5-0.3 10.5-1.4 11.5-1.5 30.5-4.1 33.1-6.5 33.1-40.3v-4c0-24.2 0.5-37.2 2.9-53.2 3.8-24.9 11.8-45.6 25.7-61.8 27.9-32.4 69.2-56 113.2-64.3 53.1-10 90.8 38.4 64.8 82.8-12.6 21.4-27.3 25.4-59.2 24.7-6.7-0.1-9.6-0.1-13.1 0-9 0.4-15.3 2-20.7 5.5-10.4 6.7-16.3 20.3-18.2 40.6-1 10.5-0.9 20.6 0 35.9 0.3 4.5 0.4 6.8 0.5 8.6 0.2 3.1 0.2 5.5 0.2 7.6 0 4.7 7.6 10.4 23 15 8.1 2.4 16.7 4 25.9 5.2-0.3 0 6.1 0.7 7.3 1 0.9-0.1 0.9-0.1 8.2 4.6 4.2 5.1 4.2 5.1 3.8 15.8-4.2 7.4-4.2 7.4-7.5 9.2-3.8 1.6-3.8 1.6-5 1.8-2.4 0.3-2.4 0.3-3.1 0.3h-2.2c-1.4 0.6-3 1.4-5.1 2.5z" fill="#333333" /><path d="M512 912c138.2 0 224-200.1 224-464 0-69.1-29.8-104.1-77.9-107-45.8-2.7-100.6 25.1-133.3 68.6l-12.1 16.2-13-15.5c-36.9-44.3-92.2-71.9-136.7-69.2-46.6 2.8-75 37.5-75 107C288 711.9 373.8 912 512 912z" fill="#FF6253" /><path d="M462.8 902.9c137.7-46.8 221.9-269.4 225.1-555 30.3 13.6 48.1 46.6 48.1 100 0 263.9-85.8 464-224 464-17.2 0.1-33.7-3-49.2-9z" fill="#EA4333" /><path d="M659.9 309.1C725.8 313 768 362.7 768 448c0 279.8-92.7 496-256 496S256 727.8 256 448c0-85.5 40.5-135 105-138.9 50.2-3 108 23.2 150.4 66.5 39.4-43.1 97.2-69.6 148.5-66.5zM512 912c138.2 0 224-200.1 224-464 0-69.1-29.8-104.1-77.9-107-45.8-2.7-100.6 25.1-133.3 68.6l-12.1 16.2-13-15.5c-36.9-44.3-92.2-71.9-136.7-69.2-46.6 2.8-75 37.5-75 107C288 711.9 373.8 912 512 912z" fill="#333333" /><path d="M333.5 401.7c2.9-8.3 12.1-12.7 20.4-9.8 8.3 2.9 12.7 12.1 9.8 20.4-8.7 24.5-12.1 52.9-10.1 85.2 0.5 8.8-6.2 16.4-15 16.9s-16.4-6.2-16.9-15c-2.3-36.2 1.7-68.9 11.8-97.7z m-2.7 158.8c-1.6-8.7 4.1-17.1 12.7-18.7s17.1 4.1 18.7 12.7c0.7 3.4 1.4 7.1 2.1 11.1 1.7 8.7-4 17.1-12.7 18.7-8.7 1.7-17.1-4-18.7-12.7-0.8-3.9-1.5-7.7-2.1-11.1z" fill="#FFFFFF" /></svg>