<?xml version="1.0" standalone="no"?><!DOCTYPE svg PUBLIC "-//W3C//DTD SVG 1.1//EN" "http://www.w3.org/Graphics/SVG/1.1/DTD/svg11.dtd"><svg class="icon" width="200px" height="200.00px" viewBox="0 0 1024 1024" version="1.1" xmlns="http://www.w3.org/2000/svg"><path d="M733.257143 991.085714h-376.685714c-21.942857 0-36.571429-14.628571-36.571429-36.571428s14.628571-36.571429 36.571429-36.571429h376.685714c21.942857 0 36.571429-14.628571 36.571428-36.571428v-588.8c0-10.971429-3.657143-18.285714-10.971428-25.6-25.6-25.6-51.2-54.857143-73.142857-80.457143-25.6-32.914286-43.885714-65.828571-54.857143-106.057143h-234.057143c-18.285714 47.542857-40.228571 80.457143-62.171429 106.057143-18.285714 21.942857-40.228571 47.542857-69.485714 80.457143-7.314286 7.314286-10.971429 14.628571-10.971428 25.6v504.685714c0 21.942857-14.628571 36.571429-36.571429 36.571428s-36.571429-14.628571-36.571429-36.571428v-504.685714c0-25.6 10.971429-51.2 29.257143-73.142858 25.6-29.257143 51.2-54.857143 65.828572-76.8 18.285714-21.942857 40.228571-62.171429 58.514285-109.714285 7.314286-14.628571 18.285714-21.942857 32.914286-21.942857h288.914286c18.285714 0 32.914286 14.628571 36.571428 29.257142 7.314286 40.228571 21.942857 73.142857 43.885715 102.4 21.942857 25.6 43.885714 51.2 69.485714 76.8 21.942857 21.942857 32.914286 47.542857 32.914286 76.8v585.142858c3.657143 58.514286-43.885714 109.714286-106.057143 109.714285z" fill="#525252" /><path d="M769.828571 73.142857h-512c-21.942857 0-36.571429-14.628571-36.571428-36.571428s14.628571-36.571429 36.571428-36.571429h512c21.942857 0 36.571429 14.628571 36.571429 36.571429s-14.628571 36.571429-36.571429 36.571428z" fill="#FD9F27" /><path d="M663.771429 596.114286c-65.828571 0-113.371429-47.542857-153.6-91.428572-36.571429-36.571429-69.485714-73.142857-109.714286-73.142857-62.171429 0-106.057143 25.6-135.314286 84.114286-10.971429 18.285714-32.914286 25.6-51.2 14.628571-18.285714-10.971429-25.6-32.914286-14.628571-51.2 43.885714-80.457143 113.371429-124.342857 201.142857-124.342857 73.142857 0 120.685714 51.2 164.571428 98.742857 32.914286 36.571429 65.828571 69.485714 98.742858 69.485715 69.485714 0 87.771429-29.257143 98.742857-54.857143 7.314286-18.285714 29.257143-29.257143 47.542857-21.942857 18.285714 7.314286 29.257143 29.257143 21.942857 47.542857-18.285714 47.542857-62.171429 102.4-168.228571 102.4z" fill="#525252" /></svg>