<?xml version="1.0" standalone="no"?><!DOCTYPE svg PUBLIC "-//W3C//DTD SVG 1.1//EN" "http://www.w3.org/Graphics/SVG/1.1/DTD/svg11.dtd"><svg class="icon" width="200px" height="200.00px" viewBox="0 0 1024 1024" version="1.1" xmlns="http://www.w3.org/2000/svg"><path d="M918.502 379.093c-6.197-9.399-12.975-18.592-20.646-26.803-15.193-16.264-33.961-27.711-54.023-37.087-24.268-11.342-49.851-18.49-76.009-23.786-67.398-13.647-135.745-19.408-204.21-23.508-44.531-2.667-89.177-3.405-133.769-5.074-5.984-0.224-11.959-0.776-17.928-1.293-44.733-3.877-89.206-1.625-133.286 6.632-20.977 3.929-41.346 10.324-60.169 20.732-14.141 7.82-26.588 17.662-35.707 31.313-4.932 7.384-7.985 15.046-7.535 24.25 0.553 11.297 0.125 22.642 0.125 33.967 0 33.974-0.005 67.947 0.013 101.921 0.003 5.97-0.159 11.843 3.453 17.267 17.342 26.037 33.848 52.516 58.516 72.89 40.054 33.082 79.242 67.211 119.07 100.571 16.842 14.107 34.127 27.717 51.655 40.966 32.101 24.265 67.783 38.536 108.587 40.582 26.716 1.34 53.227 0.433 79.843-0.829 46.945-2.227 92.423-11.308 136.22-28.37 57.067-22.231 108.837-52.994 152.846-96.033 12.425-12.151 23.576-25.365 32.449-40.386 6.922-11.719 10.527-24.162 10.216-38.008-0.494-21.971-0.132-43.961-0.132-65.943h-0.025c0-22.648-0.414-45.308 0.158-67.942 0.337-13.194-2.617-25.267-9.712-36.029z" fill="#FF6868" /><path d="M320.134 467.719c13.316 4.451 27.154 6.278 41.366 6.051 5.215-0.406 10.485-0.484 15.657-1.148-5.173 0.664-10.442 0.741-15.658 1.142-14.21 0.232-28.049-1.594-41.365-6.045z" fill="#4F3838" /><path d="M877.431 416.66c-8.339-13.796-18.545-25.929-31.625-35.608-16.714-12.369-34.885-22.024-54.045-29.896-26.557-10.911-54.097-18.703-82.118-24.658-46.23-9.826-92.897-16.528-140-21.052-40.483-3.888-80.905-6.437-121.547-5.918-10.655 0.136-21.313 0.021-31.969 0.021-54.598-0.498-109.179-0.425-163.451 6.777-31.786 4.218-62.914 10.217-90.213 28.954-20.283 13.922-30.904 31.885-30.139 57.006 1.034 33.931 0.938 67.897 1.29 101.848 0.048 4.66-0.21 9.324-0.157 13.985 0.259 22.956 7.361 42.845 24.546 59.018 29.579 27.836 57.704 57.296 88.262 83.987 25.059 21.889 50.084 43.685 74.168 66.692 58.68 56.053 130.148 78.323 210.09 75.674 27.946-0.926 55.659-4.796 83.097-10.555 57.211-12.008 111.017-31.959 159.797-64.947 30.492-20.62 58.323-43.923 84.023-70.35 20.861-21.45 30.883-46.229 31.252-75.323 0.482-37.958 0.11-75.927 0.34-113.889 0.093-15.108-3.859-28.957-11.601-41.766z m-721.934-39.841c1.921-10.78 8.957-19 20.134-22.824 37.387-12.793 75.611-21.168 115.225-22.551 24.626-0.859 49.244-2.285 73.876-2.614 33.993-0.454 68.002 0.284 101.994-0.208 49.466-0.716 98.432 4.705 147.394 10.644 39.058 4.739 77.812 11.088 115.835 21.353 26.42 7.133 52.363 15.615 76.598 28.632 14.21 7.632 26.978 17.062 37.783 29.166 15.739 17.632 19.094 37.401 11.149 59.423-6.22 17.239-16.477 31.876-28.784 45.223-20.492 22.223-43.982 40.661-70.019 55.986-41.517 24.436-84.795 44.849-131.329 57.824-33.521 9.346-67.552 15.28-101.317 13.914-40.377 1.303-78.163-5.026-114.443-20.101-16.845-6.999-31.903-16.352-44.492-29.754-20.535-21.86-41.219-43.586-62.148-65.068-30.759-31.572-63.223-61.13-100.452-85.161-10.578-6.828-20.617-14.735-29.947-23.2-14.886-13.51-20.538-31.146-17.057-50.684z m680.409 256.194c-17.71 20.989-38.155 39.091-61.014 54.324-13.298 8.861-26.988 17.133-40.489 25.69-8.425 5.339-16.629 11.064-25.299 15.969-7.478 4.23-15.223 8.239-23.283 11.15-42.1 15.208-85.37 25.986-129.917 30.466-37.97 3.819-75.9 2.634-113.058-7.401-35.221-9.513-66.915-25.967-94.964-49.357-1.023-0.854-2.104-1.652-3.046-2.588-54.323-53.999-116.078-99.912-168.775-155.771-14.334-15.194-22.045-30.93-20.991-51.638 0.812-15.957 0.364-31.976 0.649-47.964 0.043-2.414-0.551-5.441 4.138-7.483 6.437 2.9 12.152 8.504 16.47 14.808 4.698 6.856 10.58 11.901 17.367 16.169 24.395 15.343 46.121 33.973 66.381 54.316 25.388 25.494 51.653 50.255 75.359 77.248 30.67 34.922 69.958 51.973 113.77 61.681 60.62 13.432 120.526 8.928 179.8-7.628 67.427-18.834 129.633-48.562 185.069-91.588 12.046-9.35 22.628-20.594 33.807-31.048 2.857-2.671 5.42-5.656 7.984-8.354 4.971 2.25 3.42 6.083 3.508 9.066 0.256 8.655-0.317 17.345 0.177 25.98 1.418 24.826-8.148 45.59-23.643 63.953z" fill="#4F3838" /><path d="M311.001 464.211a110.721 110.721 0 0 0 9.134 3.508c13.316 4.451 27.154 6.277 41.365 6.045 5.216-0.401 10.485-0.478 15.658-1.142a63.273 63.273 0 0 0 2.211-0.323c19.365-3.201 37.42-9.5 51.058-24.54 13.858-15.283 14.15-32.932 1.013-48.622-7.844-9.368-17.697-15.971-29.148-20.208-25.761-9.531-51.901-10.725-78.191-2.762-13.437 4.07-26.06 10.052-35.874 20.612-14.387 15.48-14.91 34.152-1.412 50.317 6.533 7.826 14.975 13.103 24.186 17.115z m2.214-51.28c8.512-6.972 18.623-10.248 29.269-11.864 5.246-0.796 10.629-0.689 15.95-0.99 14.301-0.543 27.921 2.044 40.502 8.97a40.576 40.576 0 0 1 9.43 7.212c3.106 3.205 3.304 7.623 0.635 11.005-2.82 3.574-6.193 7.387-10.185 9.25-26.933 12.561-53.979 13.056-80.775-0.706-1.766-0.907-3.428-2.067-5.006-3.28-8.122-6.237-8.083-12.828 0.18-19.597z" fill="#4F3838" /></svg>