<?xml version="1.0" standalone="no"?><!DOCTYPE svg PUBLIC "-//W3C//DTD SVG 1.1//EN" "http://www.w3.org/Graphics/SVG/1.1/DTD/svg11.dtd"><svg class="icon" width="200px" height="200.00px" viewBox="0 0 1024 1024" version="1.1" xmlns="http://www.w3.org/2000/svg"><path d="M349.7 255c25.7-40 104-65 110.7-130.9s103.6-49.8 91.8-2.8c-20.6 81.8 84.6 76.7 100.3 115.1 35 85.6 82.6 307.9 83.8 417.9 0.3 25 6.1 145.5-26.1 164.8-41.6 25-172.2 19.2-391.8-17.3C300 719 262 391.7 349.7 255z" fill="#D2BC8F" /><path d="M553.2 113.6c-25.3-5.3-57.1 5.9-60.8 42.6-6.6 65.8-85 90.9-110.7 130.9-79.9 124.5-55.5 407.2-36.6 519.1-8.8-1.4-17.7-2.9-26.7-4.4C300 719 262 391.7 349.7 255c25.7-40 104-65 110.7-130.9 6.3-62 92.8-51.3 92.8-10.5z m32.1 79.7c26.4 14.9 59 23.1 67.2 43.2 1 2.3 1.9 4.8 2.9 7.3-25.4-12.7-59-23.4-70.1-50.5z" fill="#E4D6BB" /><path d="M458.4 135.9c0.9-3.8 1.6-7.7 2-11.7 0.6-2.6 1.1-5.1 1.2-7.6 13.1-56.9 101.9-40.3 90.5 4.8-20.6 81.8 84.6 76.7 100.3 115.1 35 85.6 82.6 307.9 83.8 417.9 0.3 25 6.1 145.5-26.1 164.8-41.6 25-172.2 19.2-391.8-17.3-0.4-1.9-0.8-3.9-1.3-6 181.9 27.4 291.6 29.9 329.1 7.3 32.2-19.4 26.4-139.9 26.1-164.8-1.2-110-53-323.3-87.9-408.9-14.9-36.5-131.7-24.9-125.9-93.6z" fill="#B99E67" /><path d="M701.9 805.4c8.1-4.9 15.2-31.6 17.7-70.7 1.3-20.6 1.5-40.9 0.9-66.3 0-2-0.1-4.2-0.2-7.9-0.1-2.8-0.1-4.6-0.1-6.1-1.1-102.9-46.4-323.4-82.6-412-2.4-5.8-10.5-11.4-29.5-20.3-1.3-0.6-10.3-4.7-13-6-50-23.4-71-49.1-58.5-98.8 2.6-10.5-7.3-19.8-24.6-21-19.3-1.3-33.7 8.9-35.8 29.4-3.8 37.8-23.6 62.5-65.3 94.9 0.4-0.3-17.2 13.2-21.8 16.9C376 248 368 255.9 363 263.6c-65.7 102.3-65.1 361.2-31.4 524.1 208.6 34.3 334.2 39.4 370.3 17.7z m-365.7-559c7.3-11.3 17.4-21.3 33-33.8 4.9-3.9 22.7-17.6 22.1-17.2 35.2-27.4 50.4-46.3 53.1-72.8 3.9-38.9 34.3-60.6 69.9-58.1 34.8 2.4 61.7 27.7 53.4 60.7-7.8 30.8 3.2 44.3 41.1 62 2.6 1.2 11.5 5.3 12.9 5.9 26.5 12.3 39.1 21 45.7 37.2 37.7 92.3 83.8 316.8 85 423.7 0 1.4 0 3 0.1 5.7 0.1 3.6 0.1 5.9 0.2 7.9 0.6 26.3 0.4 47.4-1 69.1-3.3 50.5-12 83.3-33.2 96-46.4 27.9-178.3 22.1-402.7-15.2l-10.7-1.8-2.3-10.5c-12.4-56.1-23.8-161.7-24.5-256.5-1-131.7 16.5-237.8 57.9-302.3z" fill="#333333" /><path d="M735.4 701.6c0 69.5 2.8 194.7-149.1 231.4-151.9 36.7-253.8-29.6-267.9-131.2-14.2-101.6 27-224.9 182.6-245 155.7-20.1 234.4 75.3 234.4 144.8z" fill="#F4EAD5" /><path d="M735.4 701.6c0 29.1 1.4 97.6-25.3 148.3-13.6 25.8-42.8 38.1-65.8 56.6-39.8 31.9-160.8 31.9-213 26.3l144-377.5c61 21.6 160.1 103.1 160.1 146.3z" fill="#EDE0C4" /><path d="M719.4 701.6c0-76.8-89.3-145.4-216.3-129-127.7 16.5-185 110.8-168.8 227 13.6 97.8 112.6 150.7 248.3 117.9 76.3-18.4 114.8-60 129.5-122.4 6.1-25.9 7.4-47.9 7.4-89.7-0.1-1.9-0.1-1.9-0.1-3.8z m32 0v3.8c0 44.2-1.4 68-8.2 97-17.3 73.7-64.6 124.8-153.1 146.2C437.3 985.5 319 922.3 302.5 804 284.1 671.6 352 559.9 499 540.9c145.2-18.7 252.4 63.5 252.4 160.7zM436.7 177l20.1-24.9c24.2 19.5 55.8 22.8 96.5 9l10.3 30.3c-50.5 17.1-93.4 12.6-126.9-14.4z" fill="#333333" /><path d="M494.9 696.8c1.5-25.7-1.1-43.4-7.9-53.1-10.1-14.5-27.2-20-38-12.4-10.9 7.6-11.4 25.5-1.3 40 6.8 9.6 22.5 18.1 47.2 25.5zM492.8 795.1c-25.6-2.9-43.4-1.2-53.4 5.1-15 9.4-21.4 26.1-14.4 37.3s24.9 12.8 39.9 3.4c9.9-6.2 19.2-21.5 27.9-45.8zM582.2 743.2c15.4 20.7 28.8 32.6 40.2 35.6 17.1 4.6 33.7-2.1 37.1-14.9 3.4-12.8-7.6-26.9-24.7-31.5-11.4-3-28.9 0.6-52.6 10.8zM553.1 790.5c-11.8 28.3-15.8 49.2-12.1 62.9 5.5 20.5 22 33.8 37 29.8s22.6-23.9 17.1-44.3c-3.7-13.7-17.7-29.8-42-48.4zM439 727.1c-16.9-6.8-29.6-9.3-38.1-7.3-12.7 2.9-21.5 12.2-19.5 20.6 1.9 8.4 13.9 12.9 26.6 10 8.4-2 18.8-9.8 31-23.3zM552.7 674.5c14-11.7 22.1-21.8 24.3-30.2 3.4-12.6-0.7-24.7-9-26.9-8.4-2.2-17.9 6.2-21.3 18.8-2.2 8.4-0.2 21.2 6 38.3zM613.1 690.1c17.5 5 30.4 6.1 38.7 3.3 12.4-4.3 20.1-14.3 17.3-22.5-2.8-8.2-15.1-11.4-27.5-7.1-8.3 2.7-17.8 11.5-28.5 26.3z" fill="#CCB584" /><path d="M525.6 748.8m-16 0a16 16 0 1 0 32 0 16 16 0 1 0-32 0Z" fill="#CCB584" /><path d="M512 272m-16 0a16 16 0 1 0 32 0 16 16 0 1 0-32 0Z" fill="#B8A275" /><path d="M416 336m-16 0a16 16 0 1 0 32 0 16 16 0 1 0-32 0Z" fill="#B8A275" /><path d="M608 432m-16 0a16 16 0 1 0 32 0 16 16 0 1 0-32 0Z" fill="#B8A275" /><path d="M512 448m-16 0a16 16 0 1 0 32 0 16 16 0 1 0-32 0Z" fill="#B8A275" /><path d="M416 512m-16 0a16 16 0 1 0 32 0 16 16 0 1 0-32 0Z" fill="#B8A275" /></svg>