<?xml version="1.0" standalone="no"?><!DOCTYPE svg PUBLIC "-//W3C//DTD SVG 1.1//EN" "http://www.w3.org/Graphics/SVG/1.1/DTD/svg11.dtd"><svg class="icon" width="200px" height="200.00px" viewBox="0 0 1024 1024" version="1.1" xmlns="http://www.w3.org/2000/svg"><path d="M485.9 107.5c0 42.3-55.6 96.8-45.4 182.9s37.5 301.7 19.1 422-73.4 234.2-73.4 247.4 155-36.1 206.1-145.3c51.1-109.2 66.7-344.9 20.1-500.4S492.5 131.4 492.5 86s-6.6-20.9-6.6 21.5z" fill="#77AD1D" /><path d="M414.4 880.4c43-24.6 89.8-62.6 113.8-113.8 51.1-109.2 66.7-344.9 20.1-500.4-19.7-65.5-44-108.3-65.6-139.2 2-6.8 3.2-13.2 3.2-19.4 0-42.3 6.6-66.8 6.6-21.4s73.1 72.5 119.8 228.1 31.1 391.2-20.1 500.4c-51.1 109-206.1 158.3-206.1 145.1 0-6.4 12.9-36.5 28.3-79.4z" fill="#5D8C0F" /><path d="M469.9 107.5c0-20.9 1.6-39.8 4-48 0.5-1.8 1.1-3.4 2.1-5 3-5.3 7.7-9.4 16.1-8.6 7.9 0.8 11.5 5 13.8 10.4 0.7 1.7 1.1 3.4 1.5 5.2 0.9 4.9 1.3 13 1.3 24.6 0 3.4 0.7 6.8 2.1 10.6 3.2 8.3 55.3 74.8 74.8 110.3 16.4 29.8 30.4 63.4 42.2 102.6 46 153.2 34.3 393.9-20.9 511.8-24.3 51.8-71.4 94.8-129.1 125.8-21.8 11.8-43.9 21-62 26.2-8.5 2.5-15.9 4-21.6 4.4-3.9 0.3-7.3 0.1-10.6-0.9-7.3-2.1-13.2-8-13.2-17.1 0-7.4 31.9-91.3 40.5-117.3 15.4-46.7 26.7-90.6 33.1-132.5 6.9-45.2 7.7-107.7 3.4-183.9-2.4-43.3-6.4-89.3-11.7-139.2-1.8-17.1-3.7-34.1-5.9-52.8-1.3-10.8-5.1-43.3-5-41.9-5.1-43 3.2-77.9 23.4-123.5 22.7-52 21.7-49.3 21.7-61.2z m34.6-39c0-0.1 0-0.2 0.1-0.2v0.1l-0.1 0.1z m-11 76c-2.1 5.3-4.4 10.8-7.8 18.2 0.4-0.9-6.6 14.5-8.5 18.9-18.1 40.9-25.1 70.7-20.8 106.8-0.2-1.5 3.7 31.1 5 41.9 2.2 18.8 4.1 35.9 5.9 53.1 5.3 50.4 9.3 96.8 11.8 140.7 4.4 78.2 3.6 142.6-3.7 190.5-6.7 43.9-18.5 89.5-34.4 137.7-7.8 23.7-23.4 65.7-32.3 89.5 15.5-4.7 34.7-12.8 53.8-23.1 52.2-28.1 94.4-66.5 115.3-111.2 51.7-110.5 63-343.2 19.2-489.1-11.1-37.1-24.3-68.6-39.6-96.4-12-21.8-41.3-61.3-60.1-88.2-1.1 3.6-2.4 7.1-3.8 10.7z" fill="#333333" /><path d="M504 260m-56 0a56 56 0 1 0 112 0 56 56 0 1 0-112 0Z" fill="#A8CC5D" /><path d="M454.3 285.7c7.7 4 16.5 6.3 25.7 6.3 30.9 0 56-25.1 56-56 0-9.3-2.3-18-6.3-25.7 18 9.3 30.3 28.1 30.3 49.7 0 30.9-25.1 56-56 56-21.6 0-40.4-12.3-49.7-30.3z" fill="#8EB43D" /><path d="M504 332c-39.8 0-72-32.2-72-72s32.2-72 72-72 72 32.2 72 72-32.2 72-72 72z m0-32c22.1 0 40-17.9 40-40s-17.9-40-40-40-40 17.9-40 40 17.9 40 40 40z" fill="#333333" /><path d="M552 548m-56 0a56 56 0 1 0 112 0 56 56 0 1 0-112 0Z" fill="#A8CC5D" /><path d="M502.3 573.7c7.7 4 16.5 6.3 25.7 6.3 30.9 0 56-25.1 56-56 0-9.3-2.3-18-6.3-25.7 18 9.3 30.3 28.1 30.3 49.7 0 30.9-25.1 56-56 56-21.6 0-40.4-12.3-49.7-30.3z" fill="#8EB43D" /><path d="M552 620c-39.8 0-72-32.2-72-72s32.2-72 72-72 72 32.2 72 72-32.2 72-72 72z m0-32c22.1 0 40-17.9 40-40s-17.9-40-40-40-40 17.9-40 40 17.9 40 40 40z" fill="#333333" /><path d="M504 836m-56 0a56 56 0 1 0 112 0 56 56 0 1 0-112 0Z" fill="#A8CC5D" /><path d="M454.3 861.7c7.7 4 16.5 6.3 25.7 6.3 30.9 0 56-25.1 56-56 0-9.3-2.3-18-6.3-25.7 18 9.3 30.3 28.1 30.3 49.7 0 30.9-25.1 56-56 56-21.6 0-40.4-12.3-49.7-30.3z" fill="#8EB43D" /><path d="M504 908c-39.8 0-72-32.2-72-72s32.2-72 72-72 72 32.2 72 72-32.2 72-72 72z m0-32c22.1 0 40-17.9 40-40s-17.9-40-40-40-40 17.9-40 40 17.9 40 40 40z" fill="#333333" /><path d="M488 244m-8 0a8 8 0 1 0 16 0 8 8 0 1 0-16 0Z" fill="#FFFFFF" /><path d="M528 404m-56 0a56 56 0 1 0 112 0 56 56 0 1 0-112 0Z" fill="#A8CC5D" /><path d="M478.3 429.7c7.7 4 16.5 6.3 25.7 6.3 30.9 0 56-25.1 56-56 0-9.3-2.3-18-6.3-25.7 18 9.3 30.3 28.1 30.3 49.7 0 30.9-25.1 56-56 56-21.6 0-40.4-12.3-49.7-30.3z" fill="#8EB43D" /><path d="M528 476c-39.8 0-72-32.2-72-72s32.2-72 72-72 72 32.2 72 72-32.2 72-72 72z m0-32c22.1 0 40-17.9 40-40s-17.9-40-40-40-40 17.9-40 40 17.9 40 40 40z" fill="#333333" /><path d="M512 388m-8 0a8 8 0 1 0 16 0 8 8 0 1 0-16 0Z" fill="#FFFFFF" /><path d="M536 532m-8 0a8 8 0 1 0 16 0 8 8 0 1 0-16 0Z" fill="#FFFFFF" /><path d="M528 692m-56 0a56 56 0 1 0 112 0 56 56 0 1 0-112 0Z" fill="#A8CC5D" /><path d="M478.3 717.7c7.7 4 16.5 6.3 25.7 6.3 30.9 0 56-25.1 56-56 0-9.3-2.3-18-6.3-25.7 18 9.3 30.3 28.1 30.3 49.7 0 30.9-25.1 56-56 56-21.6 0-40.4-12.3-49.7-30.3z" fill="#8EB43D" /><path d="M528 764c-39.8 0-72-32.2-72-72s32.2-72 72-72 72 32.2 72 72-32.2 72-72 72z m0-32c22.1 0 40-17.9 40-40s-17.9-40-40-40-40 17.9-40 40 17.9 40 40 40z" fill="#333333" /><path d="M512 676m-8 0a8 8 0 1 0 16 0 8 8 0 1 0-16 0Z" fill="#FFFFFF" /><path d="M488 820m-8 0a8 8 0 1 0 16 0 8 8 0 1 0-16 0Z" fill="#FFFFFF" /></svg>