<?xml version="1.0" standalone="no"?><!DOCTYPE svg PUBLIC "-//W3C//DTD SVG 1.1//EN" "http://www.w3.org/Graphics/SVG/1.1/DTD/svg11.dtd"><svg class="icon" width="200px" height="200.00px" viewBox="0 0 1024 1024" version="1.1" xmlns="http://www.w3.org/2000/svg"><path d="M96.66901333 492.75676445c3.04469333 5.98129778 6.98823111 11.56664889 10.99320889 16.98816 31.82136889 43.07854222 68.80483555 81.55704889 106.51306667 119.3984 5.52846222 5.54780445 12.22542222 7.99630222 19.51857778 9.9373511 28.79943111 7.66407111 58.13589333 12.42680889 87.69991111 15.4373689 88.2176 8.98389333 175.33724445 1.64750222 261.58421333-18.36373334 92.85404445-21.54382222 179.73589333-57.7536 261.9392-105.64494222 6.35676445-3.70346667 12.86712889-7.14296889 19.73816889-10.94314667 6.36586667 3.29841778 12.38471111 6.26119111 18.25905778 9.48565333 36.70243555 20.14776889 73.34456889 40.40590222 110.09820444 60.4626489 3.83658667 2.09351111 8.26368 3.10385778 12.71466667 4.72405333 2.46784-18.26588445 2.53838222-151.06161778-0.07281778-171.64515556-6.54563555 3.51800889-11.29585778 5.80152889-15.77984 8.52423111-26.55800889 16.12458667-52.96241778 32.50517333-79.60007111 48.49664-21.57909333 12.95473778-15.14040889 12.07182222-38.64234667 2.52928-120.37347555-48.87552-245.32195555-79.03459555-374.75214222-89.80366222-64.07395555-5.33162667-128.19911111-4.608-192.26965333 2.43484444-64.04892445 7.04056889-126.53454222 20.56874667-187.47847111 41.34912-5.07676445 1.73056-10.25137778 3.62951111-14.77745778 6.42503112-11.39484445 7.04170667-16.04835555 18.25450667-12.83527111 31.34919111 1.59402667 6.49216 4.11420445 12.89329778 7.14979555 18.85866667z" fill="#DED6E5" /><path d="M729.62958222 559.98464zM786.33756445 537.06979555s0.00113778 0 0 0c-0.72021333-0.68266667-1.35623111-1.56216889-2.11057778-2.16974222 0.75434667 0.60757333 1.38922667 1.48821333 2.11057778 2.16974222z" fill="#4F3838" /><path d="M45.51452445 542.46513778a386.53838222 386.53838222 0 0 0 15.6922311 21.14332444c28.63331555 36.00270222 60.28743111 69.25312 92.7288889 101.80152889 6.50467555 6.52629333 14.09479111 9.78716445 22.82154666 12.04679111 50.65841778 13.10833778 102.34993778 18.24085333 154.41351111 18.69482667 69.82883555 0.60871111 138.67690667-8.24547555 206.44750223-25.28597334 89.66144-22.54506667 173.75573333-58.41692445 253.22496-105.42421333 7.47747555-4.42254222 15.03004445-8.71992889 22.86933333-13.26193777 15.74229333 8.20110222 30.67904 15.9232 45.56003555 23.7511111 15.52839111 8.16924445 30.89976889 16.64 46.52828445 24.60899556 14.84572445 7.56849778 28.90638222 16.83228445 45.86951111 22.64632889 0.75776-4.25870222 1.83068445-7.48202667 1.83296-10.70762667 0.03527111-51.29671111-0.05233778-102.59342222-0.23665778-153.89013333-0.00113778-0.256-0.09557333-0.51086222-0.25031111-0.76572445-0.46193778-0.76458667-1.45976889-1.52689778-2.06392889-2.28920888-0.46421333-0.09898667-1.03082667-0.38001778-1.45863111-0.41528889a0.63488 0.63488 0 0 0-0.37205333 0.06257777c-40.99299555 23.30965333-81.95754667 46.67164445-124.81877334 71.11111112-5.88003555-2.42346667-11.45400889-4.74453333-17.04732444-7.02236445-6.24981333-2.54520889-12.46890667-5.17802667-18.78243556-7.55484444-131.80928-49.62417778-267.66449778-79.23939555-408.80924444-82.96106667-85.50513778-2.25507555-169.98968889 5.29635555-253.01674667 26.28152889-23.52696889 5.94716445-46.76835555 13.16977778-69.84362667 20.71552-22.30954667 7.29543111-33.65774222 21.69173333-20.5312 51.03957333 2.46328889 5.50684445 5.80380445 10.68942222 9.2421689 15.67516445z m804.69902222-4.74225778a11036.38755555 11036.38755555 0 0 1 75.07171555-43.11608889c0.92956445-0.52906667 2.54065778 0.13994667 4.34744889 0.29468444 0.54727111 1.57468445 1.68846222 3.34051555 1.69756444 5.11203556 0.13767111 27.53763555 0.15246222 55.07640889 0.06485334 82.61404444-0.00341333 1.01489778-1.34599111 2.02524445-2.37226667 3.46908445-1.67480889-0.26168889-3.82520889-0.08192-5.44085333-0.92615111a9464.74666667 9464.74666667 0 0 1-73.03964444-38.54563556c-1.63612445-0.87267555-2.68856889-2.83875555-4.26211556-4.57045333 1.41312-1.59744 2.39729778-3.44064 3.93329778-4.33152z m-194.71018667 71.2192c-56.81834667 23.85123555-115.58115555 41.23534222-176.14506667 52.52892445-57.32807111 10.68942222-115.20227555 15.00842667-173.39392 12.0979911-28.92913778-1.44725333-57.71946667-5.73553778-86.55075555-8.9338311-2.45987555-0.27306667-4.75477333-2.02524445-7.31818667-3.17553778 9.12839111-9.94986667 17.29080889-18.00305778 24.43264-26.87658667 6.71402667-8.34218667 12.35057778-17.55249778 18.49799111-26.43399111 34.68060445 4.19612445 68.74680889 8.54584889 102.87104 12.38243556 34.28807111 3.85479111 68.73998222 4.26439111 103.20896 3.9674311 34.48263111-0.29696 68.87765333-2.29831111 103.01212445-7.07470222 33.93649778-4.74794667 67.72053333-10.58588445 105.56984888-16.57969778-6.88583111 3.96970667-10.34581333 6.48533333-14.18467555 8.09756445z m-379.83345778-89.75018667c2.13105778-20.68707555 2.24369778-41.58236445 3.30524445-63.70645333 4.49877333-0.93297778 8.8576-2.24711111 13.30403555-2.69425778 33.66115555-3.38033778 67.4304-3.13230222 101.13479111-1.52576 128.30947555 6.11669333 252.61852445 32.11036445 373.18428445 76.25614223 5.68775111 2.08327111 11.26968889 4.46577778 16.82659555 6.88014222 0.28558222 0.12401778 0.54954667 0.29582222 0.80099556 0.49834666 0.75434667 0.60757333 1.38922667 1.48707555 2.11171556 2.16860445l-0.00113778 0.00113777c-9.54368 6.41706667-29.38083555 14.38037333-56.70684445 22.91370667-2.04117333 0.63715555-4.12103111 1.27772445-6.24526222 1.92170667a910.22108445 910.22108445 0 0 1-16.23722667 4.75022222 1170.07928889 1170.07928889 0 0 1-28.61397333 7.68113778c-101.02784 25.81845333-203.77713778 31.98407111-307.34791111 24.87409778-66.20501333-4.54428445-90.24056889-9.54709333-105.16707556-16.51256889 3.29614222-21.13422222 7.45927111-42.21838222 9.65176889-63.50620445z m-23.58954667-61.71420444c0.78506667 2.05368889 2.38478222 4.38954667 2.48832 6.79025778 1.44270222 33.20945778-0.17976889 66.19022222-8.54129777 98.54634666-4.93340445 19.08736-11.98535111 37.31000889-23.68967111 53.39136-9.66428445 13.27900445-21.11943111 24.46677333-36.47488 31.24906667-9.02371555 3.98563555-16.18261333 3.42812445-23.60547556-4.17450667-33.05927111-33.85799111-65.66343111-68.08917333-94.03960889-106.07274666-7.23285333-9.68135111-14.60906667-19.42528-16.14848-33.09795556 28.1088-18.0736 150.27996445-46.32462222 200.01109333-46.63182222z" fill="#4F3838" /><path d="M786.33756445 537.06979555c-9.54481778 6.41706667-29.38311111 14.38037333-56.70684445 22.91370667 27.32487111-8.53333333 47.16316445-16.49664 56.70684445-22.91370667zM723.38432 561.90520889zM149.16721778 554.43797333l11.38915555 10.37653334 19.32060445-16.54784 20.82019555 16.69802666 10.46414222-11.07285333-16.60472888-20.19328 16.62065778-20.03399111-10.41408-9.94417778c-9.19552 3.24949333-12.51100445 13.51907555-21.6325689 15.09262222l-19.28192-15.89134222-10.69283555 11.30040889 16.74126222 19.40707555-16.72988444 20.80881778z" fill="#4F3838" /></svg>