<?xml version="1.0" standalone="no"?><!DOCTYPE svg PUBLIC "-//W3C//DTD SVG 1.1//EN" "http://www.w3.org/Graphics/SVG/1.1/DTD/svg11.dtd"><svg class="icon" width="200px" height="200.00px" viewBox="0 0 1024 1024" version="1.1" xmlns="http://www.w3.org/2000/svg"><path d="M512 912c97.2 0 160-189.8 160-424S577.2 80 512 80 352 253.8 352 488s62.8 424 160 424z" fill="#FFDD67" /><path d="M467 897.3C395.9 848.5 352 683.7 352 488c0-234.2 94.8-408 160-408 19.4 0 41.5 15.5 62.9 43.3-10.7-7.4-21.1-11.3-30.9-11.3-65.2 0-160 173.8-160 408 0 164.4 31 306.9 83 377.3z" fill="#FFEAA3" /><path d="M413.4 829.6c6 1.6 12.3 2.4 18.6 2.4 97.2 0 160-189.8 160-424 0-137.7-32.8-254.5-73-327.4C583.8 92.3 672 262.1 672 488c0 234.2-62.8 424-160 424-39 0-72.5-30.6-98.6-82.4z" fill="#EDC742" /><path d="M512 176c-8.8 0-16-7.2-16-16s7.2-16 16-16 16 7.2 16 16-7.2 16-16 16z m0 144c-8.8 0-16-7.2-16-16s7.2-16 16-16 16 7.2 16 16-7.2 16-16 16z m-40 80c-8.8 0-16-7.2-16-16s7.2-16 16-16 16 7.2 16 16-7.2 16-16 16z m80 0c-8.8 0-16-7.2-16-16s7.2-16 16-16 16 7.2 16 16-7.2 16-16 16z m72 0c-8.8 0-16-7.2-16-16s7.2-16 16-16 16 7.2 16 16-7.2 16-16 16zM472 240c-8.8 0-16-7.2-16-16s7.2-16 16-16 16 7.2 16 16-7.2 16-16 16z m-40 80c-8.8 0-16-7.2-16-16s7.2-16 16-16 16 7.2 16 16-7.2 16-16 16z m-32 80c-8.8 0-16-7.2-16-16s7.2-16 16-16 16 7.2 16 16-7.2 16-16 16z m152-160c-8.8 0-16-7.2-16-16s7.2-16 16-16 16 7.2 16 16-7.2 16-16 16z m-80 304c-8.8 0-16-7.2-16-16s7.2-16 16-16 16 7.2 16 16-7.2 16-16 16z m80 0c-8.8 0-16-7.2-16-16s7.2-16 16-16 16 7.2 16 16-7.2 16-16 16z m40-224c-8.8 0-16-7.2-16-16s7.2-16 16-16 16 7.2 16 16-7.2 16-16 16z m-80 160c-8.8 0-16-7.2-16-16s7.2-16 16-16 16 7.2 16 16-7.2 16-16 16z m-80 0c-8.8 0-16-7.2-16-16s7.2-16 16-16 16 7.2 16 16-7.2 16-16 16z m160 0c-8.8 0-16-7.2-16-16s7.2-16 16-16 16 7.2 16 16-7.2 16-16 16z" fill="#E6BC28" /><path d="M512 928c-107.4 0-176-189-176-440 0-220.7 89-424 176-424s176 203.3 176 424c0 251-68.6 440-176 440z m0-32c80.9 0 144-173.9 144-408 0-107-20.3-208-54.2-285.4C572.6 135.9 536.5 96 512 96s-60.6 39.9-89.8 106.6C388.3 280 368 381 368 488c0 234.1 63.1 408 144 408z" fill="#333333" /><path d="M764.1 438c-73.3 0-268.2 114-324.2 306-37.3 128-13.3 194.7 72 200 59.9 0 161.3-57.7 178.1-179.1 16.8-121.4-40.9-263.8 74.1-326.9z" fill="#B2D56D" /><path d="M706.3 498.8C620 543.9 511.4 640.6 471.9 776c-20.8 71.2-22.6 123.4-5.4 156.7-47.3-24.5-56.2-87.4-26.6-188.7 56-192 250.9-306 324.2-306-28.8 15.8-46.8 36.6-57.8 60.8z" fill="#D0E5A7" /><path d="M440.1 743.3c11.3 4.9 24.6 7.8 39.8 8.7 59.9 0 191.3-110.6 208.1-232 3.2-22.9 42.3-54.6 44.1-76.9 12.2-3.4 23-5.1 32-5.1-115 63.1-57.3 205.6-74.1 326.9C673.3 886.3 571.9 944 511.9 944c-85.3-5.3-109.3-72-72-200 0.1-0.2 0.2-0.5 0.2-0.7z" fill="#98BE4D" /><path d="M259.8 438C333.1 438 528 552 584 744c37.3 128 13.3 194.7-72 200-59.9 0-161.3-57.7-178.1-179.1-16.8-121.4 40.9-263.8-74.1-326.9z" fill="#B2D56D" /><path d="M327.7 456.2c-7.3-1.5-14-2.2-19.9-2.2 115 63.1 57.3 205.6 74.1 326.9 11.5 83.1 62.6 136.3 113 161.7-60.4-9.5-145.7-67.2-161-177.7-16.8-121.4 41-263.8-74.1-326.9 17.1 0 40.9 6.2 67.9 18.2z" fill="#D0E5A7" /><path d="M380.6 484.7C460.3 535 549.1 624.4 584 744c37.3 128 13.3 194.7-72 200-36 0-86.8-20.8-125.4-63.6 21.9 10.4 43.5 15.6 61.4 15.6 85.3-5.3 109.3-72 72-200-25.7-88-80.5-159.6-139.4-211.3z" fill="#98BE4D" /><path d="M674.2 762.7c3-21.7 3.7-45.2 2.9-75.6-0.3-9.5-0.6-17.5-1.4-34.2-3-66.9-2.6-94.7 5-127.6 4.9-21.1 12.7-39.7 23.9-55.9-54.9 24-122.6 73.9-172.5 135.3 30.3 41.6 53.2 86.8 67.2 134.9 17.3 59.2 21.8 107.4 13.2 143.5 31-29.3 54.9-71 61.7-120.4z m-105.6-14.2c-14-48-37.7-93.1-69.4-134.4-4.4-5.7-4.4-13.7 0-19.5 76-98.7 196.5-172.6 264.9-172.6 16.6 0 22.2 22.1 7.7 30-59.7 32.8-69.7 76.2-64.1 199.4 0.8 16.9 1.1 25 1.4 34.7 0.9 32.1 0.1 57.1-3.2 80.9C690.2 880.5 596.4 960 512 960c-21.1 0-21.3-31.4-0.6-32 72.2-4.7 92.1-60.2 57.2-179.5z" fill="#333333" /><path d="M343.2 525.3c7.6 32.9 8 60.8 5 127.6-0.8 16.7-1.1 24.7-1.4 34.2-0.9 30.4-0.1 53.9 2.9 75.6C363.2 860.1 443.3 928 511 928c72.5-4.5 92.5-60 57.6-179.6-24.5-84.2-79-159.3-150.3-217.1-33-26.7-68-47.9-98.6-61.3 11.1 16.1 18.7 34.5 23.5 55.3zM259.8 422c43.8 0 115 33.1 178.6 84.6 76.1 61.6 134.4 142.1 160.9 233C639.2 876 611.1 953.8 512 960c-84.5 0-178.3-79.5-194-192.9-3.3-23.8-4.1-48.9-3.2-80.9 0.3-9.8 0.6-17.9 1.4-34.7 5.6-123.2-4.4-166.7-64.1-199.4-14.5-8.1-8.8-30.1 7.7-30.1z" fill="#333333" /></svg>