<?xml version="1.0" standalone="no"?><!DOCTYPE svg PUBLIC "-//W3C//DTD SVG 1.1//EN" "http://www.w3.org/Graphics/SVG/1.1/DTD/svg11.dtd"><svg class="icon" width="200px" height="200.00px" viewBox="0 0 1024 1024" version="1.1" xmlns="http://www.w3.org/2000/svg"><path d="M230.226 572.62c16.256 13.959 34.119 25.468 53.126 35.288 35.103 18.135 72.166 30.92 110.607 39.543 13.553 3.04 27.562 5.002 41.433 5.496 56.611 2.018 113.145 1.101 169.366-8.159 2.292 1.53 4.625 2.827 6.662 4.486a47762.654 47762.654 0 0 1 94.43 77.093c3.083 2.525 5.995 5.298 8.744 8.187 11.139 11.708 17.375 24.807 13.492 41.671-2.88 12.511-1.781 25.176 1.861 37.548 4.258 14.458 13.558 24.427 27.639 29.344 16.787 5.861 33.895 6.368 51.029 0.97 17.28-5.443 28.166-17.054 33.195-34.281 1.479-5.066 2.559-10.249 3.766-15.155 5.68-3.374 11.176-5.951 15.862-9.575 7.863-6.08 16.014-12.104 22.602-19.446 12.356-13.771 15.778-30.202 11.879-48.449-4.531-21.211-16.854-35.815-36.219-44.749-14.101-6.505-29.11-9.54-44.563-9.814-10.472-0.186-18.929-3.523-27.054-10.508-27.779-23.882-56.202-47.014-84.294-70.533-3.441-2.881-6.372-6.372-8.407-8.434 4.415-23.28 9.507-44.692 12.368-66.398 5.257-39.895 5.508-80.014-5.838-118.948-19.305-66.244-51.428-125.519-100.6-174.692-19.952-19.953-42.772-36.048-68.735-47.321-40.223-17.464-81.773-23.327-124.856-12.816-31.499 7.685-59.985 21.994-85.677 41.542-49.024 37.301-87.821 83.352-114.942 138.748-19.609 40.052-29.372 82.476-29.129 127.342 0.247 45.628 17.937 82.553 52.253 112.02z" fill="#FF6868" /><path d="M168.802 567.454c12.378 12.092 24.998 24.015 38.286 35.082 49.365 41.114 105.95 67.222 169.927 72.935 65.583 5.856 131.523 9.926 197.019-1.388 2.581 1.68 4.958 2.926 6.989 4.593 32.957 27.037 65.826 54.18 98.833 81.155 5.875 4.801 9.921 10.391 12.22 17.715 3.414 10.876 6.446 21.567 4.462 33.221-1.819 10.681-0.377 21.358 2.913 31.58 5.355 16.638 16.756 26.941 34.181 29.728 19.521 3.122 37.109-3.716 53.131-13.378 12.818-7.73 16.534-21.888 18.403-36.147 0.078-0.592 0.659-1.118 2.051-3.352 6.57-1.997 13.075-3.544 19.252-5.936 15.663-6.064 27.079-16.746 33.111-32.607 12.889-33.891-7.489-71.534-44.031-80.613-9.617-2.389-19.689-3.756-29.588-3.973-9.979-0.219-17.956-3.167-25.085-10.07-28.232-27.334-56.572-54.559-85.092-81.592-7.229-6.852-8.389-13.985-5.52-23.384 6.08-19.915 7.207-40.723 6.884-61.304-0.469-29.962-4.096-59.73-9.996-89.172-6.193-30.909-16.447-60.226-32.254-87.676-29.142-50.604-65.467-95.468-107.064-136.229-13.117-12.852-28.577-21.991-46.292-26.546-33.021-8.49-65.966-7.652-98.328 3.43-10.051 3.442-19.676 8.135-29.475 12.305-69.448 29.559-123.811 77.236-166.246 139.026-18.971 27.624-33.602 57.471-42.549 89.862-7.516 27.207-10.977 54.795-5.965 82.968 4.071 22.876 13.054 43.384 29.823 59.767z m496.147 66.428c27.05 25.626 54.343 51.013 80.796 77.245 10.106 10.021 20.272 16.264 35.078 14.361 7.798-1.002 16.041-0.29 23.863 0.993 19.668 3.223 31.479 19.458 28.967 38.718-1.587 12.17-9.715 20.536-22.093 22.126-5.255 0.676-10.656 0.165-15.935 0.723-12.432 1.315-19.26 7.844-20.863 20.26-0.676 5.241-0.175 10.626-0.354 15.94-0.268 7.963-4.047 14.044-10.795 17.996-4.569 2.675-9.462 4.866-14.375 6.872-13.091 5.344-26.237-0.437-29.698-14.136-1.913-7.567-2.047-15.874-1.437-23.727 1.167-14.989-1.888-28.984-6.731-42.99-3.38-9.776-8.644-17.484-16.788-24.019-26.465-21.237-52.533-42.973-78.688-64.595-5.019-4.149-9.741-8.656-17.488-15.58 25.026-7.798 38.674-24.327 53.917-40.44 4.656 3.753 8.901 6.727 12.624 10.253zM562.495 305.306c0.303-3.263 0.68-6.52 1.449-13.843 4.526 4.412 6.696 5.906 8.049 7.942 13.26 19.965 26.879 39.715 39.421 60.125 16.283 26.496 24.857 55.926 29.475 86.447a1065.362 1065.362 0 0 1 7.682 63.442c2.056 22.76-0.391 45.452-6.855 67.252-12.074 40.715-40.544 64.653-81.201 74.356-14.884 3.553-30.186 4.896-45.614 4.657-25.991-0.402-52.013 0.343-77.976-0.634-36.594-1.376-73.237-4.003-109.037-11.898-28.837-6.36-55.015-19.801-79.271-36.698-1.331-0.927-1.864-2.999-3.102-5.107 2.673-0.337 4.812-1.263 6.457-0.712 13.932 4.662 27.73 2.002 41.468-0.611 35.19-6.693 67.492-21.045 97.547-39.881 59.328-37.182 106.216-86.363 139.215-148.487 17.737-33.389 28.802-68.689 32.293-106.35zM157.913 484.447c0.033-1.998 0.004-3.998 0.004-5.996-0.01-22.977 5.493-44.929 13.276-66.271 12.678-34.764 31.373-66.227 55.651-94.067 9.112-10.448 20.534-18.867 30.782-28.341 19.119-17.673 39.139-34.153 61.413-47.784 24.004-14.69 49.211-26.676 76.607-33.437 23.442-5.785 47.023-8.577 71.146-3.012 31.333 7.228 52.11 25.787 61.724 56.249 8.72 27.627 5.604 55.284-1.897 82.687-10.721 39.163-29.767 74.085-55 105.607-35.017 43.743-76.573 79.644-127.84 103.33-29.295 13.536-59.755 22.818-92.442 21.829-11.912-0.36-24.125-0.881-35.553-3.834-8.672-2.241-17.448-7.168-24.215-13.129-22.026-19.398-34.156-43.88-33.656-73.831z" fill="#4F3838" /><path d="M314.017 477.859c2.575-0.418 9.29-0.831 15.603-2.641 51.865-14.869 85.221-49.533 104.202-98.965 2.815-7.332 4.123-15.482 4.768-23.366 2.642-32.278-19.987-56.824-52.391-57.037-5.91-0.039-12.021 0.615-17.714 2.154-52.763 14.268-87.499 48.448-106.664 98.794-3.444 9.048-4.36 19.504-4.402 29.318-0.137 32.549 19.819 51.773 56.598 51.743z m-24.452-73.561c13.919-37.723 40.534-63.368 78.299-76.808 7.183-2.556 15.767-2.229 23.592-1.668 10.667 0.763 16.947 7.358 17.54 18.156 0.394 7.17 0.258 14.873-1.924 21.597-12.714 39.172-39.501 65.216-77.335 80.395-2.422 0.972-5.142 1.286-7.758 1.671-3.281 0.482-6.597 0.72-7.351 0.799-4.55 0-6.555 0.158-8.529-0.026-12.297-1.146-18.637-6.57-19.158-18.625-0.366-8.483-0.251-17.699 2.624-25.491z" fill="#4F3838" /></svg>